<?xml version="1.0" encoding="UTF-8"?>
<svg xmlns="http://www.w3.org/2000/svg" xmlns:xlink="http://www.w3.org/1999/xlink" width="282.2396pt" height="320.6903pt" viewBox="0 0 282.2396 320.6903" version="1.1">
<g id="surface1">
<path style=" stroke:none;fill-rule:nonzero;fill:rgb(100%,100%,100%);fill-opacity:1;" d="M 258.75 162.265625 C 256.109375 158.332031 253.21875 154.925781 250.496094 151.867188 C 249.039062 150.226562 247.617188 148.679688 246.3125 147.1875 C 246.898438 145.957031 247.265625 144.773438 247.5 143.824219 C 247.832031 142.480469 247.972656 140.644531 248.042969 139.414062 C 248.125 138.0625 248.234375 130.28125 248.234375 130.28125 L 245.417969 131.734375 C 245.425781 130.082031 245.378906 128.386719 245.234375 126.871094 C 243.691406 110.585938 232.800781 98.589844 221.4375 90.125 C 215.683594 85.839844 209.605469 82.300781 204.097656 79.421875 C 198.660156 76.578125 193.6875 74.335938 190.011719 72.617188 C 152.472656 55.09375 119.421875 48.867188 81.363281 30.167969 C 72.707031 25.917969 62.355469 20.8125 55.429688 14.863281 L 49.878906 10.09375 L 48.691406 13.792969 L 41.855469 8.988281 C 41.855469 8.988281 38.546875 24.539062 40.632812 32.371094 C 36.160156 30.515625 31.835938 28.128906 31.835938 28.128906 C 31.835938 28.128906 30.710938 43.007812 34.445312 50.464844 L 26.664062 46.902344 C 26.664062 46.902344 27.558594 62.722656 31.277344 69.472656 L 25.351562 67.683594 C 25.351562 67.683594 24.019531 81.207031 30.179688 87.734375 C 26.40625 87.550781 24.9375 87.550781 24.9375 87.550781 C 24.9375 87.550781 26.039062 92.980469 26.550781 93.894531 L 27.359375 96.136719 C 30.710938 105.769531 37.984375 111.34375 45.800781 114.964844 C 33.664062 122.203125 23.824219 133.183594 16.414062 143.992188 L 10.242188 153.375 L 20.925781 153.542969 C 48.910156 153.679688 69.046875 169.773438 92.121094 193.265625 L 92.738281 193.898438 C 115.738281 216.40625 139.84375 267.398438 148.914062 299.183594 L 152.167969 308.988281 L 160.972656 298.164062 C 172.566406 284.226562 191.46875 252.46875 191.207031 231.050781 C 197.222656 231.460938 206.65625 231.925781 213.597656 231.429688 C 224.546875 230.648438 238.527344 227.058594 244.164062 225.625 C 245.386719 226.859375 246.523438 229.066406 246.59375 229.773438 L 247.808594 241.535156 L 256.050781 233.054688 C 267.246094 221.539062 268.429688 208.996094 268.511719 194.871094 C 268.589844 180.75 264.207031 170.386719 258.75 162.265625 "/>
<path style=" stroke:none;fill-rule:nonzero;fill:rgb(0%,0%,0%);fill-opacity:1;" d="M 255.433594 164.496094 C 252.898438 160.722656 250.121094 157.460938 247.507812 154.523438 C 245.292969 152.035156 243.167969 149.753906 241.378906 147.550781 C 242.613281 146.089844 243.265625 144.289062 243.617188 142.863281 C 244.082031 140.988281 244.140625 136.90625 244.140625 136.90625 C 244.140625 136.90625 242.207031 137.90625 241.140625 138.40625 C 241.3125 136.167969 241.621094 131.097656 241.253906 127.246094 C 239.871094 112.628906 230.058594 101.535156 219.046875 93.332031 C 213.523438 89.214844 207.640625 85.785156 202.246094 82.964844 C 196.871094 80.15625 191.953125 77.9375 188.320312 76.242188 C 150.757812 58.703125 117.136719 52.121094 79.65625 33.710938 C 71.246094 29.578125 60.644531 24.371094 53.453125 18.195312 L 51.707031 16.699219 L 50.664062 19.957031 L 48.441406 18.296875 L 44.550781 15.566406 L 44.144531 17.945312 C 43.238281 23.269531 43.488281 32.664062 45.824219 39.203125 C 45.1875 38.820312 44.496094 38.410156 43.808594 38.019531 C 42.730469 37.402344 41.664062 36.824219 40.816406 36.429688 C 40.324219 36.203125 36.3125 34.042969 36.003906 34.238281 C 34.917969 34.925781 35.71875 36.960938 35.957031 38.675781 C 37.066406 46.671875 38.863281 53.984375 41.339844 58.308594 C 41.339844 58.308594 32.441406 53.492188 31.957031 53.558594 C 31.296875 53.652344 31.414062 55.175781 31.542969 56.042969 C 32.328125 61.261719 33.320312 64.328125 34.703125 68.199219 C 35.632812 70.792969 36.828125 73.351562 38.628906 75.597656 C 38.765625 75.644531 38.789062 75.664062 38.660156 75.636719 C 38.648438 75.625 38.640625 75.609375 38.628906 75.597656 C 37.585938 75.226562 29.671875 72.957031 29.671875 72.957031 C 29.671875 72.957031 29.292969 74.367188 29.738281 76.886719 C 30.976562 83.917969 34.09375 87.546875 38.101562 91.894531 C 38.101562 91.894531 29.753906 90.792969 29.730469 91.1875 L 31.0625 94.609375 C 35.023438 106.023438 45.160156 111.128906 55.699219 114.457031 C 40.679688 120.621094 28.574219 133.328125 19.734375 146.21875 L 17.582031 149.492188 L 20.964844 149.542969 C 50.722656 149.6875 71.867188 166.9375 94.976562 190.46875 C 95.207031 190.703125 95.566406 191.074219 95.566406 191.074219 C 119.28125 214.277344 143.578125 265.921875 152.734375 298.003906 L 153.667969 300.808594 L 157.898438 295.605469 C 169.421875 281.753906 187.5 251.148438 187.199219 231.265625 L 187.351562 226.746094 C 191.847656 227.125 204.59375 228.0625 213.3125 227.441406 C 225.417969 226.574219 241.304688 222.1875 244.957031 221.300781 C 247.992188 222.757812 250.371094 227.421875 250.574219 229.359375 L 250.910156 232.609375 L 253.183594 230.269531 C 263.234375 219.925781 264.433594 208.773438 264.511719 194.847656 C 264.585938 181.664062 260.519531 172.070312 255.433594 164.496094 "/>
<path style=" stroke:none;fill-rule:nonzero;fill:rgb(100%,100%,100%);fill-opacity:1;" d="M 143.335938 151.28125 L 118.609375 134.953125 L 142.523438 139.683594 C 131.707031 133.625 110.765625 118.332031 110.765625 118.332031 C 110.765625 118.332031 133.960938 124.570312 140.640625 126.128906 L 127.304688 114.429688 C 132.078125 114.882812 150.265625 112.328125 150.265625 112.328125 L 125.890625 89.339844 C 122.378906 85.125 117.527344 81.550781 114.429688 77.378906 L 191.53125 111.882812 C 196.460938 110.757812 201.449219 110.84375 205.957031 110.921875 C 217.769531 118.457031 223.40625 129.957031 232.253906 139.179688 C 234.132812 137.335938 233.828125 132.804688 233.917969 128.644531 C 234.378906 107.753906 194.5 86.480469 194.5 86.480469 C 188.519531 83.175781 175.363281 77.796875 175.363281 77.796875 C 141.363281 65.109375 112.835938 55.761719 73.804688 38.992188 C 61.953125 33.898438 56.191406 25.304688 53.386719 23.542969 L 53.0625 28.382812 C 53.359375 41.5625 63.28125 52.96875 74.085938 59.847656 C 74.09375 60.816406 61.421875 52.933594 53.664062 47.957031 C 51.164062 46.355469 48.453125 44.789062 47.308594 43.757812 C 46.230469 53.859375 54.296875 61.585938 61.496094 67.414062 C 65.707031 70.828125 71.40625 73.46875 70.621094 74.386719 C 61.78125 69.875 52.679688 65.800781 43.328125 62.457031 C 41.214844 74 69.722656 88.4375 69.722656 88.4375 C 61.378906 85.921875 52.035156 84.0625 44.015625 80.6875 C 44.015625 80.6875 45.363281 87.773438 55.875 95.324219 C 60.671875 98.769531 70.019531 100.730469 70.019531 100.730469 C 60.914062 100.804688 53.210938 99.769531 43.738281 98.425781 C 44.386719 102.898438 48.765625 104.925781 52.449219 106.566406 C 52.449219 106.566406 66.945312 111.339844 74.566406 112.492188 C 74.566406 112.492188 85.324219 114.53125 84.605469 115.070312 C 58.535156 120.699219 52.871094 127.878906 35.171875 141.054688 L 33.449219 142.789062 C 39.375 142.9375 44.863281 144.832031 51.734375 147.476562 C 62.28125 151.53125 67.339844 155.898438 76.5 162.515625 C 96.394531 176.882812 113.597656 200.304688 120.378906 207.621094 C 123.089844 203.328125 142.46875 170.382812 142.011719 168.449219 L 132.21875 163.007812 L 142.152344 160.992188 C 142.152344 160.992188 124.492188 151.410156 119.96875 147.851562 C 122.574219 147.277344 145.765625 152.515625 143.335938 151.28125 Z M 116.972656 96.035156 C 117.6875 96.046875 129.886719 103.695312 135.773438 106.324219 L 122.800781 109.136719 C 121.871094 107.484375 116.320312 96.023438 116.972656 96.035156 Z M 70.140625 48.25 C 65.328125 43.851562 62.144531 39.636719 59.949219 35 C 59.398438 33.835938 69.207031 43.636719 86.726562 51 C 96.226562 54.992188 111.5625 60.011719 111.5625 60.011719 C 111.5625 60.011719 82.535156 59.582031 70.140625 48.25 Z M 70.699219 130.128906 C 64.011719 135.195312 55.140625 144.984375 55.140625 144.984375 C 55.140625 144.984375 45.0625 140.25 45.078125 139.339844 C 45.113281 137.351562 52.859375 132.441406 53.347656 132.363281 C 67.457031 122.753906 91.828125 118.054688 91.828125 118.054688 C 84.824219 122.199219 78.261719 124.398438 70.699219 130.128906 Z M 84.335938 73.375 C 74.652344 71.523438 68.417969 69.507812 61.550781 62.433594 C 58.664062 59.457031 54.359375 53.050781 55.335938 53.808594 C 66.078125 60.085938 75.074219 66.175781 87.109375 69.453125 C 90.851562 70.472656 99.289062 72.007812 102.984375 73.359375 C 102.984375 73.359375 91.476562 74.742188 84.335938 73.375 Z M 125.21875 177.011719 L 136.191406 173.003906 L 122.84375 196.707031 C 122.894531 191.5 125.21875 177.011719 125.21875 177.011719 "/>
<path style=" stroke:none;fill-rule:nonzero;fill:rgb(100%,100%,100%);fill-opacity:1;" d="M 244.148438 162.347656 C 244.148438 162.347656 236.699219 153.667969 231.402344 149.648438 C 231.402344 149.648438 228.164062 162.355469 222.085938 167.125 C 218.03125 170.304688 214.859375 173.5 209.875 172.183594 C 203.460938 170.488281 201.519531 165.566406 201.519531 165.566406 C 197.171875 153.238281 185.367188 148.179688 172.332031 149.117188 C 164.726562 149.664062 159.082031 150.761719 154.328125 156.714844 C 133.175781 183.210938 162.792969 212.5 191.597656 218.292969 C 200.996094 220.183594 216.136719 219.671875 216.136719 219.671875 C 219.691406 220.117188 238.984375 215.621094 242.335938 214.042969 C 228.707031 205.625 158.019531 174.339844 157.761719 174.003906 L 156.078125 173.355469 C 154.886719 175.378906 155.035156 178.324219 155.339844 180.609375 L 154.011719 180.621094 L 153.34375 176.929688 L 153.273438 174.738281 C 153.601562 155.9375 179.734375 156.578125 192.136719 163.917969 C 191.859375 164.152344 187.828125 163.652344 185.101562 163.953125 C 182.523438 164.234375 178.59375 165.324219 178.59375 165.324219 C 187.554688 169.132812 217.066406 198.074219 242.558594 209.648438 C 247.539062 211.910156 253.304688 220.867188 253.304688 220.867188 C 254.648438 218.058594 257.773438 210.914062 258.664062 204.109375 C 260.90625 187.011719 253.445312 171.296875 244.148438 162.347656 Z M 229.429688 171.46875 C 228.304688 171.746094 227.46875 171.980469 226.457031 171.417969 C 225.554688 170.914062 225.242188 170.246094 224.902344 169.269531 C 223.949219 166.511719 227.039062 164.113281 229.222656 163.167969 C 230.039062 162.652344 230.964844 163.339844 230.964844 163.339844 C 230.964844 163.339844 227.382812 166.25 228.441406 168.042969 C 229.679688 170.140625 233.773438 164.796875 233.773438 164.796875 C 233.773438 164.796875 232.445312 170.726562 229.429688 171.46875 Z M 255.539062 204.054688 C 255.539062 204.054688 254.378906 211.273438 253.242188 214.082031 L 249.71875 209.097656 C 250.886719 206.796875 251.574219 200.140625 251.542969 194.34375 C 251.5 185.796875 248.414062 180.039062 247.308594 172.84375 C 252.914062 182.566406 256.085938 192.808594 255.539062 204.054688 "/>
<path style=" stroke:none;fill-rule:nonzero;fill:rgb(100%,100%,100%);fill-opacity:1;" d="M 229.328125 146.464844 C 231.414062 145.84375 233.722656 145.8125 235.210938 144.046875 C 227.050781 142.574219 222.640625 133.609375 215.582031 126.519531 C 210.917969 121.835938 208.160156 116.617188 202.476562 115.769531 C 195.046875 118.023438 186.488281 118.296875 181.398438 123.683594 C 183.6875 122.855469 186.425781 121.742188 188.34375 121.773438 L 196.363281 121.394531 C 200.566406 121.46875 211.433594 131.8125 212.078125 132.484375 C 217.257812 136.585938 221.953125 145.8125 229.328125 146.464844 "/>
<path style=" stroke:none;fill-rule:nonzero;fill:rgb(100%,100%,100%);fill-opacity:1;" d="M 174.714844 167.398438 C 174.714844 167.398438 170.664062 166.640625 168.207031 167.285156 C 164.976562 168.140625 162.078125 169.488281 161.253906 172.300781 C 172.484375 178.03125 185.304688 180.925781 197.4375 186.519531 C 197.246094 185.882812 192.109375 181.117188 190.375 179.457031 C 189.90625 179.007812 187.335938 181.035156 186.683594 181.023438 C 186.035156 181.011719 186.039062 180.640625 185.578125 180.429688 C 185.578125 180.429688 188.210938 179.148438 189.78125 178.144531 C 189.046875 178.105469 185.042969 173.9375 185.042969 173.9375 C 185.042969 173.9375 177.457031 176.308594 176.808594 176.296875 C 176.15625 176.285156 175.691406 176.289062 175.226562 176.078125 L 175.238281 175.433594 C 177.785156 174.746094 180.925781 173.707031 183.617188 172.929688 L 183.109375 172.3125 C 182.28125 171.566406 179.660156 169.570312 178.226562 169.546875 C 174.972656 169.488281 170.640625 173.0625 167.746094 173.011719 C 167.09375 173 166.695312 172.542969 166.449219 172.121094 C 169.816406 170.855469 176.394531 167.988281 176.394531 167.988281 C 175.78125 167.9375 175.367188 167.410156 174.714844 167.398438 "/>
<path style=" stroke:none;fill-rule:nonzero;fill:rgb(100%,100%,100%);fill-opacity:1;" d="M 162.988281 247.925781 L 162.570312 248.511719 C 160.175781 254.992188 155.460938 260.582031 150.25 265.019531 C 152.539062 271.085938 156.671875 283.101562 156.671875 283.101562 C 165.308594 271.878906 178.65625 252.152344 179.058594 229.203125 L 179.085938 223.800781 C 177.238281 224.558594 172.699219 225.335938 171.300781 225.742188 C 169.617188 233.65625 165.832031 240.394531 162.988281 247.925781 "/>
<path style=" stroke:none;fill-rule:nonzero;fill:rgb(100%,100%,100%);fill-opacity:1;" d="M 209.535156 145.453125 C 208.199219 144.511719 206.515625 143.347656 205.265625 142.742188 C 205.265625 142.742188 206.519531 140.789062 207.496094 139.679688 C 208.546875 138.492188 210.480469 136.917969 210.480469 136.917969 L 210.277344 136.726562 C 208.898438 135.261719 208.445312 134.242188 206.09375 132.554688 C 203.597656 131.132812 201.382812 129.683594 199.054688 128.082031 L 198.097656 127.671875 C 197.277344 129.234375 195.789062 133.246094 195.285156 137.019531 C 194.925781 139.734375 195.164062 144.046875 195.164062 144.046875 C 195.496094 145.589844 195.664062 147.390625 196.191406 148.664062 C 197.527344 151.789062 200.957031 153.867188 203.664062 157.464844 C 205.945312 160.5 206.015625 163.34375 209.125 165.523438 C 210.070312 166.1875 211.195312 166.6875 211.839844 166.699219 C 215.136719 166.757812 218.605469 163.109375 220.207031 160.675781 L 216.945312 160.660156 C 216.945312 160.660156 211.394531 162.046875 207.972656 158.757812 C 206.320312 156.660156 204.507812 155.324219 203.835938 150.90625 C 203.5 148.53125 203.574219 148.160156 203.703125 147.363281 L 209.847656 147.585938 L 210.105469 147.570312 L 212.121094 147.441406 L 210.753906 146.390625 L 210.207031 145.972656 L 209.535156 145.453125 "/>
<path style=" stroke:none;fill-rule:nonzero;fill:rgb(0%,0%,0%);fill-opacity:1;" d="M 169.832031 298.503906 C 169.832031 297.347656 169.144531 297.167969 168.136719 297.167969 L 166.023438 297.167969 L 166.023438 301.527344 L 166.996094 301.527344 L 166.996094 299.6875 L 167.671875 299.6875 L 168.644531 301.527344 L 169.703125 301.527344 L 168.644531 299.6875 C 169.417969 299.632812 169.832031 299.304688 169.832031 298.503906 Z M 168.160156 299.03125 L 166.996094 299.03125 L 166.996094 297.929688 L 167.9375 297.929688 C 168.359375 297.929688 168.921875 297.929688 168.921875 298.375 C 168.921875 298.925781 168.644531 299.03125 168.160156 299.03125 Z M 167.695312 295.191406 C 165.355469 295.191406 163.503906 297.0625 163.503906 299.402344 C 163.503906 301.71875 165.355469 303.589844 167.695312 303.589844 C 170.019531 303.589844 171.882812 301.71875 171.882812 299.402344 C 171.882812 297.0625 170.019531 295.191406 167.695312 295.191406 Z M 167.695312 302.597656 C 165.863281 302.597656 164.5 301.265625 164.5 299.402344 C 164.5 297.519531 165.863281 296.1875 167.695312 296.1875 C 169.492188 296.1875 170.886719 297.519531 170.886719 299.402344 C 170.886719 301.265625 169.492188 302.597656 167.695312 302.597656 "/>
</g>
</svg>
